<?xml version="1.0" encoding="UTF-8"?>
<svg xmlns="http://www.w3.org/2000/svg" viewBox="0 0 217.75 321.34">
  <circle cx="108.76" cy="108.76" r="108.76" fill="white"/>
  <path fill="#1FC76A" d="M149.71,82.57l10.11-19.54.6-32.36-29.15,12.61-10.04,10.3-12.45.11-12.48-.11-10.04-10.3-29.15-12.61.6,32.36,10.11,19.54-13.77,27.54,9.31,2.78,28.81,42.53v19.37l7.61,7.61,4.48,4.46h10.28l12.17-12.17v-18.98l29.39-43.37,7.39-2.22-13.77-27.54ZM155.01,61.8l-9.05,17.5-17.56-9.09,13.25-19.82,13.77-10.92-.41,22.34ZM134.05,47.32l8.1-3.49-4.09,3.23-11.81,17.67-1.4-7.97,9.2-9.44ZM83.48,47.32l9.2,9.44-1.4,7.97-11.81-17.67-4.09-3.23,8.1,3.49ZM62.51,61.8l-.41-22.34,13.77,10.92,13.25,19.82-17.56,9.09-9.05-17.5ZM70.66,115.07l12,3.6,11.25,11.36-.13,5.24,5.54,3.96,6.94,5.19v14.95h-9.27v-5.34l.02-.04-26.35-38.91ZM95.52,105.59s-1.92-.02-5-.02-4.37-6.79-4.37-6.79h3.88c2.05,0,3.94,1.14,4.83,3,.9,1.92.67,3.81.67,3.81ZM104.16,136.83l1.9-2.28h.37v3.96l-.15-.11-2.11-1.57ZM96.99,169.62v-5.37h14.46l-14.46,5.37ZM111.1,138.51v-3.96h.37l1.9,2.28-2.11,1.57-.15.11ZM112.55,182.04h-6.31l-5.43-5.43h17.17l-5.43,5.43ZM121.88,171.78h-16.81l16.81-6.25v6.25ZM122.61,153.16l-.73,1.06v5.15h-10.32v-15.17l6.66-4.98,5.54-3.96-.13-5.24,11.25-11.36,13.92-4.16-26.18,38.66ZM122.54,100.87c.88-1.85,2.78-3,4.83-3h3.88s-1.23,6.79-4.35,6.79-5.02.02-5.02.02c0,0-.22-1.9.67-3.81ZM132.3,114.38l-9.09,9.18-1.1-15.02c1.57-.04,3.49-.06,5.71-.06,6.55,0,9.18-14.26,9.18-14.26h-11.94c-8.55,4.09-7.84,13.64-7.76,14.5l1.47,20.17h-.02l.11,3.94-1.59,1.14-3.51-4.24h-9.98l-3.51,4.24-1.59-1.14.11-3.94h-.02l1.4-20.17v-.02c.02-2.65-.54-10.11-7.8-13.6h-11.96s2.63,14.26,9.18,14.26c2.26,0,4.2.04,5.77.09l-1.03,14.11-9.09-9.18-24.31-7.24,11.4-22.8,21.35-11.05c.62-.32,1.1-.9,1.27-1.59.02-.06.02-.11.04-.17l2.31-13.12,11.08.11h.8l11.08-.11,2.33,13.12c0,.06,0,.11.02.17.17.69.65,1.27,1.27,1.59l21.35,11.05,11.4,22.8-24.31,7.24Z"/>
  <text fill="#1FC76A" font-family="Arial Black, Arial, sans-serif" font-size="55" font-weight="900" letter-spacing="3" text-anchor="middle" x="108.76" y="305">LUXFOX</text>
</svg>
