<?xml version="1.0" encoding="UTF-8"?>
<svg xmlns="http://www.w3.org/2000/svg" viewBox="0 0 300 300">
  <circle cx="150" cy="150" r="143" fill="white"/>
  <g transform="translate(73,40) scale(0.944)" fill="#1a1a1a" fill-rule="evenodd">
    <path d="M142.78,77.46l15.06-29.17.9-48.28-43.51,18.81-14.97,15.35-18.61.18-18.61-.18-14.97-15.35L4.58,0l.9,48.28,15.06,29.17L0,118.56l13.89,4.15,43,63.45v28.92l.77.77,1.93,1.93,8.66,8.66,6.66,6.66h15.36l18.17-18.17v-28.33l43.84-64.75,11.04-3.3-20.55-41.1ZM150.67,46.47l-13.48,26.11-26.23-13.58,19.79-29.58,20.54-16.31-.63,33.37ZM119.41,24.86l12.07-5.22-6.08,4.83-17.63,26.35-2.1-11.88,13.74-14.08ZM43.92,24.86l13.74,14.08-2.1,11.88-17.63-26.35-6.08-4.83,12.07,5.22ZM12.66,46.47l-.63-33.37,20.54,16.31,19.79,29.58-26.23,13.58-13.48-26.11ZM24.8,125.96l17.91,5.35,16.79,16.97-.19,7.81,8.25,5.9,10.37,7.77v22.32h-13.84v-8h-.04l.08-.05-39.34-58.06ZM61.91,111.8s-2.88-.05-7.48-.05-6.52-10.14-6.52-10.14h5.8c3.06,0,5.89,1.72,7.19,4.48,1.35,2.86,1.01,5.7,1.01,5.7ZM74.8,158.41l2.81-3.39h.55v5.91l-.21-.15-3.16-2.37ZM64.1,207.37v-8.03h21.57l-21.57,8.03ZM85.16,160.93v-5.91h.55l2.81,3.39-3.16,2.37-.21.15ZM87.3,225.9h-9.4l-8.12-8.12h25.64l-8.12,8.12ZM101.24,210.57h-25.09l25.09-9.33v9.33ZM102.33,182.79l-1.09,1.6v7.69h-15.41v-22.65l9.93-7.44,8.25-5.9-.19-7.81,16.79-16.97,20.77-6.2-39.05,57.68ZM102.24,104.77c1.31-2.77,4.14-4.49,7.19-4.49h5.8s-1.86,10.14-6.52,10.14-7.48.05-7.48.05c0,0-.34-2.84,1.01-5.7ZM116.79,124.93l-13.55,13.69-1.66-22.41c2.34-.07,5.21-.12,8.52-.12,9.8,0,13.7-21.29,13.7-21.29h-17.83c-12.74,6.12-11.69,20.38-11.58,21.64l2.2,30.11h-.03l.14,5.9-2.37,1.7-5.25-6.33h-14.87l-5.25,6.33-2.37-1.7.14-5.9h-.03l2.08-30.11h0c.06-3.98-.79-15.09-11.64-20.3h-17.83s3.91,21.29,13.7,21.29c3.35,0,6.25.05,8.61.12l-1.56,21.07-13.55-13.69-36.26-10.83,17.01-34.01,31.85-16.5c.94-.49,1.63-1.35,1.89-2.38.02-.09.04-.17.05-.25l3.45-19.58,16.53.16h.59s.59,0,.59,0l16.53-.16,3.45,19.58c.01.08.03.17.05.25.26,1.03.95,1.89,1.89,2.38l31.85,16.5,17.01,34.01-36.26,10.83Z"/>
  </g>
</svg>
