<?xml version="1.0" encoding="UTF-8"?>
<svg xmlns="http://www.w3.org/2000/svg" viewBox="0 0 1000 1000">
  <circle cx="500" cy="500" r="478" fill="white"/>
  <g fill="none" stroke="#1FC76A" stroke-width="14" stroke-linecap="round" stroke-linejoin="round">
    <path d="M 315,210 L 318,340 L 430,310 L 500,315 L 570,310 L 682,340 L 685,210 Z"/>
    <path d="M 315,210 L 415,410 L 430,310"/>
    <path d="M 685,210 L 585,410 L 570,310"/>
    <path d="M 318,340 L 358,400 L 305,510 L 450,545 L 500,620 L 550,545 L 695,510 L 642,400 L 682,340"/>
    <path d="M 358,400 L 450,410 L 500,430 L 550,410 L 642,400"/>
    <path d="M 400,460 L 420,450 L 450,460 L 452,485 L 435,505 L 420,490 Z"/>
    <path d="M 600,460 L 580,450 L 550,460 L 548,485 L 565,505 L 580,490 Z"/>
    <path d="M 450,545 L 450,600 L 500,640 L 550,600 L 550,545"/>
    <path d="M 480,600 L 520,600 L 500,625 Z"/>
    <path d="M 340,535 L 450,690"/>
    <path d="M 660,535 L 550,690"/>
    <path d="M 500,640 L 500,690"/>
  </g>
  <text x="500" y="820" font-family="Arial, Helvetica, sans-serif" font-size="92" font-weight="bold" letter-spacing="6" text-anchor="middle" fill="#1FC76A">LUXFOX</text>
</svg>
